<?xml version="1.0" encoding="utf-8" standalone="no"?>
<!DOCTYPE svg PUBLIC "-//W3C//DTD SVG 1.1//EN"
  "http://www.w3.org/Graphics/SVG/1.1/DTD/svg11.dtd">
<svg xmlns:xlink="http://www.w3.org/1999/xlink" width="167.4pt" height="166.32pt" viewBox="0 0 167.4 166.32" xmlns="http://www.w3.org/2000/svg" version="1.1">
 <metadata>
  <rdf:RDF xmlns:dc="http://purl.org/dc/elements/1.1/" xmlns:cc="http://creativecommons.org/ns#" xmlns:rdf="http://www.w3.org/1999/02/22-rdf-syntax-ns#">
   <cc:Work>
    <dc:type rdf:resource="http://purl.org/dc/dcmitype/StillImage"/>
    <dc:date>2023-09-02T23:37:13.806407</dc:date>
    <dc:format>image/svg+xml</dc:format>
    <dc:creator>
     <cc:Agent>
      <dc:title>Matplotlib v3.7.2, https://matplotlib.org/</dc:title>
     </cc:Agent>
    </dc:creator>
   </cc:Work>
  </rdf:RDF>
 </metadata>
 <defs>
  <style type="text/css">*{stroke-linejoin: round; stroke-linecap: butt}</style>
 </defs>
 <g id="figure_1">
  <g id="patch_1">
   <path d="M 0 166.32 
L 167.4 166.32 
L 167.4 0 
L 0 0 
z
" style="fill: #ffffff"/>
  </g>
  <g id="axes_1">
   <g id="line2d_1">
    <path d="M 15.076619 83.095141 
L 14.000222 77.030868 
L 13.813207 70.840281 
L 13.855687 64.483775 
L 14.625516 58.092679 
L 16.466071 51.91547 
L 18.288595 45.53605 
L 21.304129 39.641539 
L 24.597817 33.768051 
L 28.796043 28.480545 
L 33.411872 23.473441 
L 38.534149 18.915145 
L 44.302426 15.184452 
L 50.333326 11.862634 
L 56.760973 9.380086 
L 63.398245 7.574726 
L 70.231222 6.834884 
L 77.027377 6.577431 
L 83.76528 7.390738 
L 90.244792 9.511797 
L 96.481614 11.442503 
L 102.176899 14.825352 
L 107.298548 18.855161 
L 111.851533 23.252565 
L 115.439725 28.587339 
L 117.908997 34.647456 
L 119.812551 40.412834 
L 119.922827 47.170869 
L 117.9124 54.627162 
L 112.516498 63.093204 
L 96.480559 75.801334 
L 83.927339 83.02006 
L 83.860089 83.060856 
L 83.768349 83.094324 
L 83.76528 83.095141 
L 83.766963 83.094995 
L 83.76528 83.095141 
L 83.76528 83.095141 
L 83.76528 83.095141 
L 83.796081 83.103341 
L 83.81387 83.112713 
L 83.942266 83.177139 
L 94.581673 89.299699 
L 111.313341 102.260054 
L 117.842605 111.504933 
L 120.967879 120.057723 
L 119.481483 125.385443 
L 118.120823 131.843394 
L 115.559984 137.809894 
L 111.884752 143.008496 
L 107.457058 147.767815 
L 102.254755 151.653618 
L 96.538176 155.066486 
L 90.311789 157.439323 
L 83.76528 158.996792 
L 77.015955 159.742569 
L 70.182818 159.628142 
L 63.408988 158.575724 
L 56.738551 156.871401 
L 50.34921 154.293804 
L 44.314801 150.984534 
L 38.66764 147.085722 
L 33.475475 142.641532 
L 28.926456 137.580166 
L 24.850024 132.21197 
L 21.362532 126.508113 
L 18.659355 120.441555 
L 16.539795 114.240656 
L 14.939667 107.984 
L 14.144577 101.629599 
L 13.935911 95.328506 
L 14.284023 89.134745 
L 15.076619 83.095141 
" clip-path="url(#p2e22ee8150)" style="fill: none; stroke: #1f77b4; stroke-opacity: 0.5; stroke-width: 1.5; stroke-linecap: square"/>
   </g>
   <g id="PathCollection_1">
    <path d="M 73.12791 114.228069 
L 70.464065 113.209748 
L 67.349727 111.65234 
L 64.235389 109.644254 
L 62.67822 108.442471 
L 61.121052 107.081732 
L 59.563883 105.530359 
L 58.006714 103.743693 
L 55.971608 100.95191 
L 54.18886 97.857665 
L 52.819077 94.76342 
L 51.778038 91.543359 
L 51.127553 88.574929 
L 50.751814 85.480684 
L 50.672263 82.386439 
L 50.886746 79.292193 
L 51.401 76.197948 
L 52.229899 73.103703 
L 53.397943 70.009458 
L 54.948015 66.915213 
L 56.948516 63.820967 
L 58.144959 62.273845 
L 59.563883 60.659922 
L 61.121052 59.108661 
L 62.819172 57.632477 
L 65.792558 55.481121 
L 68.906896 53.70956 
L 72.021234 52.348702 
L 75.135571 51.345472 
L 78.249909 50.667989 
L 81.364247 50.294659 
L 84.478584 50.215627 
L 87.592922 50.428719 
L 90.70726 50.939724 
L 93.821598 51.763067 
L 97.085295 52.991109 
L 100.178653 54.538232 
L 103.164611 56.450823 
L 104.72178 57.638618 
L 106.483307 59.1796 
L 108.027874 60.726722 
L 109.393286 62.281434 
L 111.642525 65.36809 
L 113.406974 68.462335 
L 114.760606 71.55658 
L 115.756046 74.650826 
L 116.424805 77.745071 
L 116.787993 80.839316 
L 116.855224 83.933561 
L 116.62835 87.027807 
L 116.101217 90.122052 
L 115.258807 93.216297 
L 114.064793 96.334555 
L 112.507624 99.406661 
L 110.487198 102.499033 
L 109.27848 104.046155 
L 107.836117 105.668464 
L 106.278948 107.202759 
L 104.550024 108.687523 
L 101.607442 110.792756 
L 98.493104 112.545565 
L 95.378766 113.890582 
L 92.264429 114.879698 
L 89.754778 115.430052 
L 89.754778 115.430052 
" clip-path="url(#p2e22ee8150)" style="fill: none; stroke-dasharray: 1.85,0.8; stroke-dashoffset: 0; stroke: #000000; stroke-width: 0.5"/>
   </g>
   <g id="PathCollection_2">
    <path d="M 32.040181 124.143368 
L 29.709225 121.064504 
L 27.637427 117.970259 
L 25.805645 114.876014 
L 24.192738 111.781768 
L 22.781375 108.687523 
L 21.55758 105.593278 
L 20.510277 102.499033 
L 19.631651 99.404787 
L 18.913943 96.310542 
L 18.352434 93.216297 
L 17.942785 90.122052 
L 17.607423 85.480684 
L 17.602813 80.839316 
L 17.928885 76.197948 
L 18.332232 73.103703 
L 19.077492 69.130615 
L 19.598363 66.915213 
L 20.634661 63.307204 
L 21.510215 60.726722 
L 22.726358 57.632477 
L 24.129556 54.538232 
L 25.733684 51.443986 
L 27.555961 48.349741 
L 29.977674 44.754319 
L 31.948027 42.161251 
L 34.649181 38.994825 
L 37.763519 35.796099 
L 41.010746 32.878515 
L 43.992194 30.516711 
L 47.242938 28.237147 
L 50.220869 26.390559 
L 53.335207 24.682171 
L 56.449545 23.181639 
L 59.563883 21.873792 
L 63.441135 20.501534 
L 65.792558 19.791495 
L 69.111709 18.954412 
L 72.021234 18.364212 
L 75.135571 17.88213 
L 79.807078 17.438507 
L 84.478584 17.324652 
L 89.150091 17.538791 
L 93.821598 18.084241 
L 98.424544 18.954412 
L 100.050273 19.342165 
L 104.089883 20.501534 
L 106.278948 21.241732 
L 109.393286 22.449922 
L 112.507624 23.843974 
L 115.621962 25.437727 
L 118.736299 27.24837 
L 122.535845 29.78427 
L 124.964975 31.611775 
L 128.294906 34.425638 
L 131.496606 37.519883 
L 134.307988 40.615156 
L 136.783071 43.708373 
L 138.979495 46.806634 
L 140.914466 49.896864 
L 142.624887 52.991109 
L 144.126753 56.085354 
L 145.435229 59.1796 
L 146.765339 62.901665 
L 147.516676 65.36809 
L 148.322508 68.530453 
L 148.93994 71.55658 
L 149.418789 74.650826 
L 149.855947 79.292193 
L 149.961315 83.933561 
L 149.736535 88.574929 
L 149.401752 91.669174 
L 148.91654 94.76342 
L 148.277698 97.857665 
L 147.479989 100.95191 
L 146.518206 104.046155 
L 145.20817 107.573141 
L 143.651001 111.123806 
L 142.093832 114.19722 
L 140.536663 116.923221 
L 138.889887 119.517381 
L 136.685129 122.611627 
L 134.195697 125.705872 
L 131.19365 128.982121 
L 128.079313 131.95965 
L 124.437987 134.988607 
L 121.850637 136.893667 
L 118.736299 138.941819 
L 114.824691 141.177098 
L 111.69691 142.72422 
L 108.077102 144.271343 
L 106.278948 144.94856 
L 103.164611 145.981918 
L 100.050273 146.848079 
L 96.935935 147.554543 
L 93.821598 148.10604 
L 89.150091 148.651484 
L 84.478584 148.865631 
L 79.807078 148.75177 
L 75.135571 148.308145 
L 72.021234 147.826086 
L 68.906896 147.191282 
L 65.792558 146.398808 
L 62.67822 145.443112 
L 59.450734 144.271343 
L 55.833263 142.72422 
L 52.705581 141.177098 
L 49.93439 139.629975 
L 47.106532 137.863649 
L 44.132828 135.776129 
L 44.132828 135.776129 
" clip-path="url(#p2e22ee8150)" style="fill: none; stroke-dasharray: 1.85,0.8; stroke-dashoffset: 0; stroke: #000000; stroke-width: 0.5"/>
   </g>
   <g id="text_1">
    <g clip-path="url(#p2e22ee8150)">
     <!-- 1.0 -->
     <g transform="translate(73.234187 118.073605) rotate(-355.859062) scale(0.1 -0.1)">
      <defs>
       <path id="DejaVuSans-31" d="M 794 531 
L 1825 531 
L 1825 4091 
L 703 3866 
L 703 4441 
L 1819 4666 
L 2450 4666 
L 2450 531 
L 3481 531 
L 3481 0 
L 794 0 
L 794 531 
z
" transform="scale(0.015625)"/>
       <path id="DejaVuSans-2e" d="M 684 794 
L 1344 794 
L 1344 0 
L 684 0 
L 684 794 
z
" transform="scale(0.015625)"/>
       <path id="DejaVuSans-30" d="M 2034 4250 
Q 1547 4250 1301 3770 
Q 1056 3291 1056 2328 
Q 1056 1369 1301 889 
Q 1547 409 2034 409 
Q 2525 409 2770 889 
Q 3016 1369 3016 2328 
Q 3016 3291 2770 3770 
Q 2525 4250 2034 4250 
z
M 2034 4750 
Q 2819 4750 3233 4129 
Q 3647 3509 3647 2328 
Q 3647 1150 3233 529 
Q 2819 -91 2034 -91 
Q 1250 -91 836 529 
Q 422 1150 422 2328 
Q 422 3509 836 4129 
Q 1250 4750 2034 4750 
z
" transform="scale(0.015625)"/>
      </defs>
      <use xlink:href="#DejaVuSans-31"/>
      <use xlink:href="#DejaVuSans-2e" x="63.623047"/>
      <use xlink:href="#DejaVuSans-30" x="95.410156"/>
     </g>
    </g>
   </g>
   <g id="text_2">
    <g clip-path="url(#p2e22ee8150)">
     <!-- 2.0 -->
     <g transform="translate(30.071125 126.82151) rotate(-316.097209) scale(0.1 -0.1)">
      <defs>
       <path id="DejaVuSans-32" d="M 1228 531 
L 3431 531 
L 3431 0 
L 469 0 
L 469 531 
Q 828 903 1448 1529 
Q 2069 2156 2228 2338 
Q 2531 2678 2651 2914 
Q 2772 3150 2772 3378 
Q 2772 3750 2511 3984 
Q 2250 4219 1831 4219 
Q 1534 4219 1204 4116 
Q 875 4013 500 3803 
L 500 4441 
Q 881 4594 1212 4672 
Q 1544 4750 1819 4750 
Q 2544 4750 2975 4387 
Q 3406 4025 3406 3419 
Q 3406 3131 3298 2873 
Q 3191 2616 2906 2266 
Q 2828 2175 2409 1742 
Q 1991 1309 1228 531 
z
" transform="scale(0.015625)"/>
      </defs>
      <use xlink:href="#DejaVuSans-32"/>
      <use xlink:href="#DejaVuSans-2e" x="63.623047"/>
      <use xlink:href="#DejaVuSans-30" x="95.410156"/>
     </g>
    </g>
   </g>
  </g>
 </g>
 <defs>
  <clipPath id="p2e22ee8150">
   <rect x="0" y="-0" width="167.4" height="166.32"/>
  </clipPath>
 </defs>
</svg>
